<svg width="21" height="24" viewBox="0 0 21 24" fill="none" xmlns="http://www.w3.org/2000/svg">
<path d="M10.829 11.5609C12.4172 11.5609 13.7924 10.9913 14.9163 9.86735C16.0398 8.74364 16.6096 7.3687 16.6096 5.78026C16.6096 4.19237 16.04 2.81726 14.9161 1.69317C13.7922 0.56964 12.4171 0 10.829 0C9.24054 0 7.8656 0.56964 6.74188 1.69336C5.61816 2.81707 5.04834 4.19219 5.04834 5.78026C5.04834 7.3687 5.61816 8.74382 6.74188 9.86753C7.86597 10.9911 9.24109 11.5609 10.829 11.5609ZM7.73651 2.6878C8.59875 1.82556 9.61023 1.40643 10.829 1.40643C12.0475 1.40643 13.0592 1.82556 13.9216 2.6878C14.7839 3.55023 15.2032 4.56188 15.2032 5.78026C15.2032 6.99901 14.7839 8.01048 13.9216 8.87291C13.0592 9.73533 12.0475 10.1545 10.829 10.1545C9.6106 10.1545 8.59912 9.73515 7.73651 8.87291C6.87408 8.01067 6.45477 6.99901 6.45477 5.78026C6.45477 4.56188 6.87408 3.55023 7.73651 2.6878Z" fill="white"/>
<path d="M20.9435 18.4548C20.9111 17.9871 20.8456 17.477 20.7491 16.9383C20.6517 16.3956 20.5262 15.8825 20.3761 15.4136C20.2208 14.9289 20.0101 14.4503 19.7491 13.9916C19.4787 13.5155 19.1608 13.101 18.8041 12.7599C18.4312 12.403 17.9745 12.1161 17.4464 11.9068C16.9202 11.6986 16.337 11.5931 15.7131 11.5931C15.4681 11.5931 15.2312 11.6936 14.7736 11.9916C14.492 12.1752 14.1626 12.3876 13.7949 12.6225C13.4805 12.8229 13.0546 13.0105 12.5286 13.1805C12.0153 13.3465 11.4942 13.4308 10.9797 13.4308C10.4655 13.4308 9.9444 13.3465 9.43079 13.1805C8.90527 13.0107 8.47919 12.823 8.16534 12.6227C7.80115 12.39 7.47156 12.1776 7.18573 11.9914C6.72852 11.6935 6.49158 11.5929 6.24658 11.5929C5.62256 11.5929 5.03955 11.6986 4.51349 11.907C3.98578 12.1159 3.52893 12.4028 3.15558 12.76C2.79889 13.1014 2.48102 13.5157 2.21075 13.9916C1.9502 14.4503 1.73926 14.9287 1.58398 15.4138C1.43402 15.8827 1.30859 16.3956 1.21118 16.9383C1.1145 17.4763 1.04913 17.9866 1.01672 18.4553C0.984863 18.9137 0.96875 19.3906 0.96875 19.8726C0.96875 21.1254 1.367 22.1396 2.15234 22.8876C2.92798 23.6257 3.9541 24 5.20233 24H16.7585C18.0063 24 19.0325 23.6257 19.8083 22.8876C20.5938 22.1402 20.9921 21.1256 20.9921 19.8724C20.9919 19.3888 20.9756 18.9118 20.9435 18.4548ZM18.8386 21.8686C18.326 22.3564 17.6456 22.5935 16.7583 22.5935H5.20233C4.31482 22.5935 3.6344 22.3564 3.12207 21.8688C2.61945 21.3903 2.37518 20.7372 2.37518 19.8726C2.37518 19.4229 2.39001 18.9788 2.41968 18.5526C2.44861 18.1344 2.50775 17.675 2.59546 17.1868C2.68207 16.7047 2.7923 16.2522 2.9234 15.8426C3.04919 15.4499 3.22076 15.0609 3.43353 14.6863C3.6366 14.3293 3.87024 14.0229 4.12805 13.7761C4.3692 13.5452 4.67316 13.3562 5.03131 13.2145C5.36255 13.0834 5.7348 13.0116 6.13892 13.0008C6.18817 13.027 6.27588 13.077 6.41797 13.1697C6.70709 13.3581 7.04034 13.573 7.40875 13.8083C7.82404 14.0731 8.35907 14.3122 8.99829 14.5186C9.65179 14.7299 10.3183 14.8372 10.9799 14.8372C11.6414 14.8372 12.3081 14.7299 12.9612 14.5188C13.601 14.312 14.1359 14.0731 14.5517 13.808C14.9287 13.567 15.2526 13.3583 15.5417 13.1697C15.6838 13.0772 15.7715 13.027 15.8208 13.0008C16.2251 13.0116 16.5974 13.0834 16.9288 13.2145C17.2867 13.3562 17.5907 13.5454 17.8318 13.7761C18.0897 14.0227 18.3233 14.3291 18.5264 14.6865C18.7393 15.0609 18.9111 15.45 19.0367 15.8424C19.168 16.2526 19.2784 16.7049 19.3648 17.1866C19.4523 17.6757 19.5117 18.1353 19.5406 18.5528C19.5704 18.9774 19.5854 19.4216 19.5856 19.8726C19.5854 20.7374 19.3412 21.3903 18.8386 21.8686Z" fill="white"/>
</svg>
