<svg width="22" height="24" viewBox="0 0 22 24" fill="none" xmlns="http://www.w3.org/2000/svg">
<path d="M21.125 21.1875C21.125 21.7053 20.7053 22.125 20.1875 22.125H19.25V23.0625C19.25 23.5803 18.8303 24 18.3125 24C17.7947 24 17.375 23.5803 17.375 23.0625V22.125H16.4375C15.9197 22.125 15.5 21.7053 15.5 21.1875C15.5 20.6697 15.9197 20.25 16.4375 20.25H17.375V19.3125C17.375 18.7947 17.7947 18.375 18.3125 18.375C18.8303 18.375 19.25 18.7947 19.25 19.3125V20.25H20.1875C20.7053 20.25 21.125 20.6697 21.125 21.1875ZM21.125 6.5625V15.5625C21.125 16.0803 20.7053 16.5 20.1875 16.5C19.6697 16.5 19.25 16.0803 19.25 15.5625V7.5H17.375V10.3125C17.375 10.8303 16.9553 11.25 16.4375 11.25C15.9197 11.25 15.5 10.8303 15.5 10.3125V7.5H6.5V10.3125C6.5 10.8303 6.08028 11.25 5.5625 11.25C5.04472 11.25 4.625 10.8303 4.625 10.3125V7.5H2.75V22.125H12.6875C13.2053 22.125 13.625 22.5447 13.625 23.0625C13.625 23.5803 13.2053 24 12.6875 24H1.8125C1.29472 24 0.875 23.5803 0.875 23.0625V6.5625C0.875 6.04472 1.29472 5.625 1.8125 5.625H4.66934C5.04177 2.46202 7.73858 0 11 0C14.2614 0 16.9582 2.46202 17.3307 5.625H20.1875C20.7053 5.625 21.125 6.04472 21.125 6.5625ZM15.4371 5.625C15.079 3.49945 13.2258 1.875 11 1.875C8.77423 1.875 6.92098 3.49945 6.56286 5.625H15.4371Z" fill="white"/>
</svg>
