<svg width="34" height="34" viewBox="0 0 34 34" fill="none" xmlns="http://www.w3.org/2000/svg">
<path d="M25.9648 10.6109V6.04297H23.9727V0C23.5563 0 14.4268 0 14.0117 0V1.99219H17.9961V6.04297H16.0039V10.6109L12.0195 14.5952V26.1373C10.753 24.8434 8.98835 24.0391 7.03906 24.0391H4.05078V27.0273C4.05078 30.8721 7.17871 34 11.0234 34C11.749 34 29.2371 34 29.9492 34V14.5952L25.9648 10.6109ZM19.9883 1.99219H21.9805V6.04297H19.9883V1.99219ZM17.9961 8.03516H23.9727V10.0273H17.9961V8.03516ZM12.0195 32.0078H11.0234C8.27721 32.0078 6.04297 29.7736 6.04297 27.0273V26.0312H7.03906C9.78529 26.0312 12.0195 28.2655 12.0195 31.0117V32.0078ZM14.0117 32.0078V31.0117C14.0117 29.364 15.3523 28.0234 17 28.0234H17.9961V29.0195C17.9961 30.6673 16.6556 32.0078 15.0078 32.0078H14.0117ZM27.957 32.0078H18.9895C19.6162 31.1748 19.9883 30.1399 19.9883 29.0195V26.0312H17C15.8797 26.0312 14.8447 26.4033 14.0117 27.0301V15.4204L17.4126 12.0195H24.5561L27.957 15.4204V32.0078Z" fill="#FF8B18"/>
<path d="M16.0039 24.0391H25.9648V16.0039H16.0039V24.0391ZM17.9961 17.9961H23.9727V22.0469H17.9961V17.9961Z" fill="#FF8B18"/>
</svg>
