<svg width="36" height="36" viewBox="0 0 36 36" fill="none" xmlns="http://www.w3.org/2000/svg">
<rect width="36" height="36" rx="18" fill="#FF8B18"/>
<path d="M23.4219 11.875H20.8438V11.4062C20.8438 10.6296 20.2142 10 19.4375 10H17.5625C16.7858 10 16.1562 10.6296 16.1562 11.4062V11.875H13.5781C12.9309 11.875 12.4062 12.3997 12.4062 13.0469V13.9844C12.4062 14.2433 12.6161 14.4531 12.875 14.4531H24.125C24.3839 14.4531 24.5938 14.2433 24.5938 13.9844V13.0469C24.5938 12.3997 24.0691 11.875 23.4219 11.875ZM17.0938 11.4062C17.0938 11.1479 17.3041 10.9375 17.5625 10.9375H19.4375C19.6959 10.9375 19.9062 11.1479 19.9062 11.4062V11.875H17.0938V11.4062Z" fill="white"/>
<path d="M23.4219 11.875H20.8438V11.4062C20.8438 10.6296 20.2142 10 19.4375 10H17.5625C16.7858 10 16.1562 10.6296 16.1562 11.4062V11.875H13.5781C12.9309 11.875 12.4062 12.3997 12.4062 13.0469V13.9844C12.4062 14.2433 12.6161 14.4531 12.875 14.4531H24.125C24.3839 14.4531 24.5938 14.2433 24.5938 13.9844V13.0469C24.5938 12.3997 24.0691 11.875 23.4219 11.875ZM17.0938 11.4062C17.0938 11.1479 17.3041 10.9375 17.5625 10.9375H19.4375C19.6959 10.9375 19.9062 11.1479 19.9062 11.4062V11.875H17.0938V11.4062Z" fill="url(#paint0_linear_119_2448)"/>
<path d="M13.2959 15.3906C13.2122 15.3906 13.1456 15.4605 13.1496 15.5441L13.5363 23.6605C13.572 24.4117 14.189 25 14.9408 25H22.0593C22.8111 25 23.4281 24.4117 23.4638 23.6605L23.8506 15.5441C23.8545 15.4605 23.7879 15.3906 23.7043 15.3906H13.2959ZM20.3751 16.5625C20.3751 16.3035 20.5848 16.0938 20.8438 16.0938C21.1028 16.0938 21.3126 16.3035 21.3126 16.5625V22.6562C21.3126 22.9152 21.1028 23.125 20.8438 23.125C20.5848 23.125 20.3751 22.9152 20.3751 22.6562V16.5625ZM18.0313 16.5625C18.0313 16.3035 18.2411 16.0938 18.5001 16.0938C18.7591 16.0938 18.9688 16.3035 18.9688 16.5625V22.6562C18.9688 22.9152 18.7591 23.125 18.5001 23.125C18.2411 23.125 18.0313 22.9152 18.0313 22.6562V16.5625ZM15.6876 16.5625C15.6876 16.3035 15.8973 16.0938 16.1563 16.0938C16.4153 16.0938 16.6251 16.3035 16.6251 16.5625V22.6562C16.6251 22.9152 16.4153 23.125 16.1563 23.125C15.8973 23.125 15.6876 22.9152 15.6876 22.6562V16.5625Z" fill="white"/>
<path d="M13.2959 15.3906C13.2122 15.3906 13.1456 15.4605 13.1496 15.5441L13.5363 23.6605C13.572 24.4117 14.189 25 14.9408 25H22.0593C22.8111 25 23.4281 24.4117 23.4638 23.6605L23.8506 15.5441C23.8545 15.4605 23.7879 15.3906 23.7043 15.3906H13.2959ZM20.3751 16.5625C20.3751 16.3035 20.5848 16.0938 20.8438 16.0938C21.1028 16.0938 21.3126 16.3035 21.3126 16.5625V22.6562C21.3126 22.9152 21.1028 23.125 20.8438 23.125C20.5848 23.125 20.3751 22.9152 20.3751 22.6562V16.5625ZM18.0313 16.5625C18.0313 16.3035 18.2411 16.0938 18.5001 16.0938C18.7591 16.0938 18.9688 16.3035 18.9688 16.5625V22.6562C18.9688 22.9152 18.7591 23.125 18.5001 23.125C18.2411 23.125 18.0313 22.9152 18.0313 22.6562V16.5625ZM15.6876 16.5625C15.6876 16.3035 15.8973 16.0938 16.1563 16.0938C16.4153 16.0938 16.6251 16.3035 16.6251 16.5625V22.6562C16.6251 22.9152 16.4153 23.125 16.1563 23.125C15.8973 23.125 15.6876 22.9152 15.6876 22.6562V16.5625Z" fill="url(#paint1_linear_119_2448)"/>
<defs>
<linearGradient id="paint0_linear_119_2448" x1="18.5" y1="10" x2="18.5" y2="14.4531" gradientUnits="userSpaceOnUse">
<stop stop-color="white"/>
<stop offset="1" stop-color="white" stop-opacity="0"/>
</linearGradient>
<linearGradient id="paint1_linear_119_2448" x1="18.5001" y1="15.3906" x2="18.5001" y2="25" gradientUnits="userSpaceOnUse">
<stop stop-color="white"/>
<stop offset="1" stop-color="white" stop-opacity="0"/>
</linearGradient>
</defs>
</svg>
