<svg width="32" height="32" viewBox="0 0 32 32" fill="none" xmlns="http://www.w3.org/2000/svg">
<g clip-path="url(#clip0_133_166)">
<path d="M24.1684 19.0252C21.9442 19.0252 20.1348 20.8346 20.1348 23.0588C20.1348 25.283 21.9442 27.0924 24.1684 27.0924C26.393 27.0924 28.202 25.283 28.202 23.0588C28.202 20.8346 26.3926 19.0252 24.1684 19.0252ZM24.1684 25.0756C23.0561 25.0756 22.1516 24.1711 22.1516 23.0588C22.1516 21.9466 23.0561 21.042 24.1684 21.042C25.2806 21.042 26.1852 21.9466 26.1852 23.0588C26.1852 24.1711 25.2806 25.0756 24.1684 25.0756Z" fill="#C4C4C4"/>
<path d="M10.3867 19.0252C8.16246 19.0252 6.35303 20.8346 6.35303 23.0588C6.35303 25.283 8.16246 27.0924 10.3867 27.0924C12.6108 27.0924 14.4203 25.283 14.4203 23.0588C14.4203 20.8346 12.6108 19.0252 10.3867 19.0252ZM10.3867 25.0756C9.2744 25.0756 8.36984 24.1711 8.36984 23.0588C8.36984 21.9466 9.2744 21.042 10.3867 21.042C11.4986 21.042 12.4035 21.9466 12.4035 23.0588C12.4035 24.1711 11.4989 25.0756 10.3867 25.0756Z" fill="#C4C4C4"/>
<path d="M26.8845 7.47969C26.713 7.13919 26.3645 6.92438 25.9833 6.92438H20.6724V8.94119H25.3614L28.1073 14.4027L29.9097 13.4964L26.8845 7.47969Z" fill="#C4C4C4"/>
<path d="M21.1429 22.0841H13.5127V24.1009H21.1429V22.0841Z" fill="#C4C4C4"/>
<path d="M7.36155 22.0841H3.8658C3.3088 22.0841 2.85742 22.5355 2.85742 23.0924C2.85742 23.6494 3.30886 24.1008 3.8658 24.1008H7.36161C7.91861 24.1008 8.36998 23.6494 8.36998 23.0924C8.36998 22.5354 7.91855 22.0841 7.36155 22.0841Z" fill="#C4C4C4"/>
<path d="M31.7885 15.9193L29.805 13.3647C29.6144 13.1186 29.3203 12.9748 29.0087 12.9748H21.6809V5.91594C21.6809 5.35894 21.2295 4.90756 20.6725 4.90756H3.8658C3.3088 4.90756 2.85742 5.359 2.85742 5.91594C2.85742 6.47287 3.30886 6.92431 3.8658 6.92431H19.6641V13.9831C19.6641 14.5401 20.1155 14.9915 20.6725 14.9915H28.5149L29.9834 16.8833V22.0839H27.1935C26.6365 22.0839 26.1851 22.5354 26.1851 23.0923C26.1851 23.6493 26.6365 24.1007 27.1935 24.1007H30.9918C31.5488 24.1007 32.0002 23.6493 32.0002 23.0923V16.5378C32.0002 16.3139 31.9256 16.0961 31.7885 15.9193Z" fill="#C4C4C4"/>
<path d="M7.29403 16.9748H2.65535C2.09835 16.9748 1.64697 17.4262 1.64697 17.9832C1.64697 18.5402 2.09841 18.9916 2.65535 18.9916H7.29397C7.85097 18.9916 8.30235 18.5401 8.30235 17.9832C8.30241 17.4262 7.85097 16.9748 7.29403 16.9748Z" fill="#C4C4C4"/>
<path d="M9.61344 13.0084H1.00838C0.451438 13.0084 0 13.4598 0 14.0168C0 14.5738 0.451438 15.0252 1.00838 15.0252H9.61344C10.1704 15.0252 10.6218 14.5737 10.6218 14.0168C10.6218 13.4599 10.1704 13.0084 9.61344 13.0084Z" fill="#C4C4C4"/>
<path d="M11.2604 9.042H2.65535C2.09835 9.042 1.64697 9.49344 1.64697 10.0504C1.64697 10.6074 2.09841 11.0588 2.65535 11.0588H11.2604C11.8174 11.0588 12.2688 10.6073 12.2688 10.0504C12.2688 9.49344 11.8174 9.042 11.2604 9.042Z" fill="#C4C4C4"/>
</g>
<defs>
<clipPath id="clip0_133_166">
<rect width="32" height="32" fill="white"/>
</clipPath>
</defs>
</svg>
