<svg width="21" height="21" viewBox="0 0 21 21" fill="none" xmlns="http://www.w3.org/2000/svg">
<g clip-path="url(#clip0_111_616)">
<path d="M10.7527 20.904C10.7724 20.8876 10.7906 20.8695 10.8069 20.8498L16.8828 14.9018C17.0771 14.7217 17.0886 14.4182 16.9085 14.2239C16.8192 14.1276 16.6943 14.0721 16.563 14.0703L13.3651 14.0703L13.3651 6.36357C13.3651 6.07577 13.3012 5.75595 13.0454 5.75595L7.92883 5.75595C7.60436 5.79396 7.34386 6.04143 7.28926 6.36357L7.28926 14.0703L4.41123 14.0703C4.21989 14.075 4.04722 14.186 3.96355 14.3582L3.96355 14.55C3.96881 14.6837 4.02622 14.8099 4.12342 14.9018L10.1673 20.8498C10.3141 21.0265 10.5762 21.0507 10.7527 20.904Z" fill="#666666"/>
<path d="M13.5251 4.31702C13.5251 4.05211 13.3104 3.83733 13.0455 3.83733L7.92891 3.83733C7.66399 3.83733 7.44921 4.05211 7.44921 4.31702C7.44921 4.58193 7.66399 4.79671 7.92891 4.79671L13.0455 4.79671C13.3104 4.79665 13.5251 4.58193 13.5251 4.31702Z" fill="#666666"/>
<path d="M13.5251 2.39847C13.5251 2.13356 13.3104 1.91878 13.0455 1.91878L7.92891 1.91878C7.66399 1.91878 7.44921 2.13356 7.44921 2.39847C7.44921 2.66338 7.66399 2.87816 7.92891 2.87816L13.0455 2.87816C13.3104 2.8781 13.5251 2.66338 13.5251 2.39847Z" fill="#666666"/>
<path d="M13.5251 0.479691C13.5251 0.214781 13.3104 -9.38837e-09 13.0455 -2.0968e-08L7.92891 -2.44619e-07C7.66399 -2.56199e-07 7.44921 0.214781 7.44921 0.479691C7.44921 0.744602 7.66399 0.959383 7.92891 0.959383L13.0455 0.959383C13.3104 0.959322 13.5251 0.744602 13.5251 0.479691Z" fill="#666666"/>
</g>
<defs>
<clipPath id="clip0_111_616">
<rect width="21" height="21" fill="white" transform="translate(21) rotate(90)"/>
</clipPath>
</defs>
</svg>
