<svg width="36" height="36" viewBox="0 0 36 36" fill="none" xmlns="http://www.w3.org/2000/svg">
<rect width="36" height="36" rx="18" fill="#138F31"/>
<g clip-path="url(#clip0_119_2447)">
<path d="M20.1782 12.1103L13.1475 19.1411L16.8623 22.856L23.8931 15.8252L20.1782 12.1103Z" fill="white"/>
<path d="M20.1782 12.1103L13.1475 19.1411L16.8623 22.856L23.8931 15.8252L20.1782 12.1103Z" fill="url(#paint0_linear_119_2447)"/>
<path d="M25.776 12.9894L23.0324 10.2068C22.7599 9.9344 22.3319 9.9344 22.0789 10.1874C22.0789 10.1874 22.0789 10.1874 22.0594 10.2068L20.853 11.4132L24.5696 15.1492L25.776 13.9428C26.0484 13.6704 26.0484 13.2423 25.776 12.9894Z" fill="white"/>
<path d="M25.776 12.9894L23.0324 10.2068C22.7599 9.9344 22.3319 9.9344 22.0789 10.1874C22.0789 10.1874 22.0789 10.1874 22.0594 10.2068L20.853 11.4132L24.5696 15.1492L25.776 13.9428C26.0484 13.6704 26.0484 13.2423 25.776 12.9894Z" fill="url(#paint1_linear_119_2447)"/>
<path d="M12.603 19.9554L11.0658 24.0806C10.9296 24.4309 11.1047 24.82 11.4549 24.9562C11.6106 25.0146 11.7857 25.0146 11.9414 24.9562L16.0665 23.3996L12.603 19.9554Z" fill="white"/>
<path d="M12.603 19.9554L11.0658 24.0806C10.9296 24.4309 11.1047 24.82 11.4549 24.9562C11.6106 25.0146 11.7857 25.0146 11.9414 24.9562L16.0665 23.3996L12.603 19.9554Z" fill="url(#paint2_linear_119_2447)"/>
</g>
<defs>
<linearGradient id="paint0_linear_119_2447" x1="16.6628" y1="15.6257" x2="20.3777" y2="19.3406" gradientUnits="userSpaceOnUse">
<stop stop-color="white"/>
<stop offset="1" stop-color="white" stop-opacity="0"/>
</linearGradient>
<linearGradient id="paint1_linear_119_2447" x1="23.4167" y1="10" x2="23.4167" y2="15.1492" gradientUnits="userSpaceOnUse">
<stop stop-color="white"/>
<stop offset="1" stop-color="white" stop-opacity="0"/>
</linearGradient>
<linearGradient id="paint2_linear_119_2447" x1="13.543" y1="19.9554" x2="13.543" y2="25" gradientUnits="userSpaceOnUse">
<stop stop-color="white"/>
<stop offset="1" stop-color="white" stop-opacity="0"/>
</linearGradient>
<clipPath id="clip0_119_2447">
<rect width="15" height="15" fill="white" transform="translate(11 10)"/>
</clipPath>
</defs>
</svg>
