<svg width="35" height="35" viewBox="0 0 35 35" fill="none" xmlns="http://www.w3.org/2000/svg">
<path d="M28.9769 15.1173L18.5622 7.79724V7.46826C20.1689 7.01965 21.3505 5.54699 21.3505 3.80436C21.3505 1.70658 19.6386 0 17.5341 0C15.4297 0 13.7178 1.70658 13.7178 3.80436C13.7178 4.37046 14.1779 4.82975 14.7458 4.82975C15.3135 4.82975 15.7739 4.37046 15.7739 3.80436C15.7739 2.83745 16.5635 2.05078 17.5341 2.05078C18.5048 2.05078 19.2944 2.83745 19.2944 3.80436C19.2944 4.77127 18.5048 5.55767 17.5341 5.55767C16.9664 5.55767 16.5061 6.01669 16.5061 6.58306V7.79697L6.1451 15.077L6.09142 15.1176C4.92237 16.0588 4.49005 17.5798 4.99046 18.9927C5.49114 20.4063 6.7865 21.3198 8.29041 21.3198H8.42606V33.5936C8.42606 34.369 9.05865 35 9.83624 35H25.232C26.0096 35 26.6422 34.369 26.6422 33.5936V21.3198H26.7779C28.2818 21.3198 29.5771 20.4063 30.0778 18.9927C30.5782 17.5798 30.1459 16.0588 28.9769 15.1173ZM24.5861 22.588H10.4822V19.2584H24.5861V22.588ZM10.4822 24.6387H24.5861V27.5691H10.4822V24.6387ZM10.4822 32.9492V29.6199H24.5861V32.9492H10.4822ZM28.1392 18.3096C28.0593 18.5347 27.7256 19.2691 26.7779 19.2691H26.6422V18.6143C26.6422 17.8386 26.0096 17.2076 25.232 17.2076H9.83624C9.05865 17.2076 8.42606 17.8386 8.42606 18.6143V19.2691H8.29041C7.34272 19.2691 7.00893 18.5347 6.92909 18.3096C6.85059 18.0872 6.65138 17.3222 7.36008 16.732L17.5341 9.5834L27.7082 16.732C28.4169 17.3222 28.2177 18.0872 28.1392 18.3096Z" fill="#FF8B18"/>
</svg>
