<svg width="36" height="36" viewBox="0 0 36 36" fill="none" xmlns="http://www.w3.org/2000/svg">
<path d="M3.01111 10.3837C3.29721 11.5978 4.06186 12.5672 5.08153 13.1276C4.40132 14.0829 4.1193 15.3146 4.40878 16.5431C4.51586 16.9976 4.69502 17.4248 4.9376 17.8128V36H32.3595V16.875H31.5935C32.0658 13.0429 32.3595 9.28652 32.3595 8.4375C32.3595 6.84527 31.4726 5.4566 30.1671 4.73857L33.1052 1.80049L31.6137 0.308883L29.1954 2.72721V0H27.086V2.72721L24.6678 0.308883L23.1762 1.80042L26.1143 4.7385C24.8088 5.45653 23.922 6.8452 23.922 8.43743C23.922 8.4697 23.9225 8.50591 23.9232 8.54374C23.5819 8.47413 23.2288 8.43743 22.8673 8.43743C21.353 8.43743 19.9867 9.07995 19.024 10.1055C18.9231 10.0404 18.8202 9.97882 18.7144 9.92264C19.3913 8.96829 19.6714 7.73916 19.3827 6.51347C18.8492 4.24927 16.5729 2.84133 14.3088 3.37472C13.7754 1.11045 11.4992 -0.297633 9.23503 0.235898C6.96562 0.770625 5.56141 3.03996 6.09621 5.30972C3.81984 5.8462 2.47828 8.12229 3.01111 10.3837ZM30.2502 33.8906H7.04704V18.9844H30.2502V33.8906ZM26.0314 8.4375C26.0314 7.27439 26.9777 6.32812 28.1408 6.32812C29.3039 6.32812 30.2502 7.27439 30.2502 8.4375C30.2502 9.17128 29.9575 12.9703 29.468 16.875H27.0832C27.7468 15.993 28.1408 14.8972 28.1408 13.7109C28.1408 12.0145 27.3347 10.5036 26.0865 9.53831C26.036 8.79209 26.0314 8.5128 26.0314 8.4375ZM22.8674 10.5469C24.612 10.5469 26.0314 11.9663 26.0314 13.7109C26.0314 15.4556 24.612 16.875 22.8674 16.875C21.1227 16.875 19.7033 15.4556 19.7033 13.7109C19.7033 11.9663 21.1227 10.5469 22.8674 10.5469ZM6.5801 7.36298L8.63322 6.87923L8.14947 4.82611C7.88278 3.69401 8.58675 2.55593 9.71885 2.28916C10.8511 2.02233 11.989 2.72651 12.2558 3.85854L12.7395 5.91173L14.7927 5.42798C15.9247 5.16122 17.0628 5.86526 17.3296 6.99736C17.5963 8.12946 16.8923 9.26754 15.7602 9.5343L16.244 11.5874C16.8343 11.4484 17.4348 11.5663 17.9159 11.896C17.7077 12.4621 17.5939 13.0735 17.5939 13.7109C17.5939 14.8972 17.9879 15.993 18.6515 16.875H14.2391L13.9901 15.8181L16.1143 12.3842L14.3204 11.2745L13.3059 12.9144L13.0226 11.7117L15.1468 8.27789L13.3529 7.16815L12.3384 8.80812L11.713 6.15361L9.65986 6.63736L10.2853 9.29187L8.64532 8.27733L7.53557 10.0712L10.9694 12.1955L11.2528 13.3982L9.61282 12.3836L8.50307 14.1775L11.9369 16.3018L12.072 16.8751H6.85411C6.66715 16.6365 6.53285 16.3602 6.46197 16.0594C6.33274 15.511 6.42485 14.9451 6.72129 14.466C7.01772 13.9868 7.48298 13.6517 8.03142 13.5226L7.54767 11.4694C6.42077 11.735 5.33325 11.0415 5.0643 9.90007C4.79142 8.74188 5.45721 7.6275 6.5801 7.36298Z" fill="#FF8B18"/>
</svg>
