<svg width="39" height="39" viewBox="0 0 39 39" fill="none" xmlns="http://www.w3.org/2000/svg">
<g clip-path="url(#clip0_390_110)">
<path d="M36.0363 21.035C34.3669 21.035 32.8753 20.2598 31.9022 19.0504C30.9292 20.2598 29.4376 21.035 27.7682 21.035C26.0988 21.035 24.6071 20.2598 23.6341 19.0504C22.6611 20.2598 21.1694 21.035 19.5 21.035C17.8306 21.035 16.339 20.2598 15.3659 19.0504C14.3929 20.2598 12.9012 21.035 11.2319 21.035C9.56248 21.035 8.07081 20.2598 7.09779 19.0504C6.12477 20.2598 4.6331 21.035 2.96371 21.035C2.75767 21.035 2.5546 21.0219 2.35449 20.9989V32.8311C2.35449 33.5513 2.93835 34.1351 3.65855 34.1351H5.66614V24.3406C5.66614 23.6944 6.18997 23.1706 6.83614 23.1706H16.6741C17.3203 23.1706 17.8441 23.6944 17.8441 24.3406V34.135H35.3415C36.0617 34.135 36.6455 33.5511 36.6455 32.831V20.9989C36.4454 21.0219 36.2424 21.035 36.0363 21.035ZM33.3339 30.8295C33.3339 31.4757 32.8101 31.9995 32.1639 31.9995H22.3259C21.6798 31.9995 21.1559 31.4757 21.1559 30.8295V24.3406C21.1559 23.6944 21.6798 23.1706 22.3259 23.1706H32.1639C32.8101 23.1706 33.3339 23.6944 33.3339 24.3406V30.8295Z" fill="white"/>
<path d="M15.5043 25.5103H8.0061V34.1348H15.5043V25.5103Z" fill="white"/>
<path d="M30.9945 25.5103H23.4963V29.6591H30.9945V25.5103Z" fill="white"/>
<path d="M37.0732 5.9088C36.9497 5.30126 36.4154 4.86502 35.7954 4.86502H32.0847L33.0655 15.6068C33.0659 15.6104 33.0661 15.6142 33.0665 15.6178L33.0671 15.6244H33.0669C33.0701 15.6595 33.0723 15.6948 33.0723 15.7308C33.0723 17.3651 34.4019 18.6949 36.0364 18.6949C37.6575 18.6949 38.979 17.3863 39 15.7699C38.9218 15.0948 37.9039 9.99367 37.0732 5.9088Z" fill="white"/>
<path d="M3.20455 4.86502C2.58459 4.86502 2.05032 5.30133 1.92677 5.9088C1.09596 9.99367 0.0780762 15.0948 0 15.7699C0.0210234 17.3863 1.34245 18.6949 2.96377 18.6949C4.59812 18.6949 5.92785 17.3653 5.92785 15.7309C5.92785 15.695 5.93006 15.6596 5.93326 15.6245L5.93272 15.6245L5.93387 15.6113C5.93387 15.6113 5.93387 15.6112 5.93387 15.6112L6.91503 4.86502H3.20455Z" fill="white"/>
<path d="M29.7351 4.86493H24.4032L24.803 15.6877H24.802C24.8025 15.7021 24.8042 15.7162 24.8042 15.7308C24.8042 17.3651 26.1338 18.6948 27.7682 18.6948C29.3879 18.6948 30.7074 17.389 30.7312 15.7749L29.7351 4.86493Z" fill="white"/>
<path d="M14.5966 4.86493H9.26467L8.2688 15.7726C8.29135 17.3877 9.61141 18.6948 11.2317 18.6948C12.8661 18.6948 14.1958 17.3652 14.1958 15.7308C14.1958 15.7162 14.1974 15.7021 14.198 15.6877L14.1967 15.6876L14.5966 4.86493Z" fill="white"/>
<path d="M22.0614 4.86511H16.9383L16.5363 15.7437C16.5432 17.3721 17.8699 18.695 19.4999 18.695C21.1286 18.695 22.4543 17.3744 22.4635 15.748L22.0614 4.86511Z" fill="white"/>
</g>
<defs>
<clipPath id="clip0_390_110">
<rect width="39" height="39" fill="white"/>
</clipPath>
</defs>
</svg>
