<svg width="20" height="20" viewBox="0 0 20 20" fill="none" xmlns="http://www.w3.org/2000/svg">
<path d="M10.7702 1.06989L10.77 1.06976C10.5629 0.86251 10.2913 0.75 9.99862 0.75C9.70577 0.75 9.43419 0.862455 9.22691 1.06973L8.69735 0.540164L9.22691 1.06973L1.07492 9.22157L1.07203 9.22453L1.06605 9.23059C0.643217 9.65586 0.644119 10.3475 1.06804 10.7714L1.06816 10.7715C1.26241 10.9659 1.51676 11.0776 1.79164 11.0894L1.81201 11.0902L1.82413 11.0914H2.14141H2.89141V11.8414V17.8453C2.89141 18.6191 3.5222 19.25 4.29641 19.25H7.32418V14.707C7.32418 13.7507 8.10094 12.9739 9.0573 12.9739H10.9399C11.8963 12.9739 12.6731 13.7507 12.6731 14.707V19.25H15.7008C16.475 19.25 17.1058 18.6191 17.1058 17.8453V11.8414V11.0914H17.8558H18.1573C18.45 11.0914 18.7216 10.979 18.9292 10.7716C19.3533 10.3469 19.3536 9.65454 18.93 9.22938L10.7702 1.06989ZM10.7702 1.06989L18.9294 9.2288L10.7702 1.06989Z" stroke="white" stroke-width="1.5"/>
</svg>
