<svg width="38" height="34" viewBox="0 0 38 34" fill="none" xmlns="http://www.w3.org/2000/svg">
<path d="M8.21836 8.98311C8.21836 6.21213 10.4727 3.95781 13.2437 3.95781H24.7564C27.5273 3.95781 29.7817 6.21213 29.7817 8.98311V11.1784C29.3633 11.8556 29.1211 12.6525 29.1211 13.5053V15.2934C28.4443 14.8755 27.6478 14.6336 26.7957 14.6336H11.2045C10.3523 14.6336 9.55581 14.8755 8.879 15.2934V13.5053C8.879 12.6526 8.63683 11.8556 8.21836 11.1784V8.98311ZM19 20.3555C19.5838 20.3555 20.057 19.8822 20.057 19.2985V16.7478H26.7955C28.0778 16.7478 29.121 17.791 29.121 19.0732V21.6101V21.7093C29.121 22.2921 28.6468 22.7663 28.064 22.7663H9.93602C9.35318 22.7663 8.879 22.2921 8.879 21.7093V21.6101V19.0732C8.879 17.791 9.92218 16.7478 11.2045 16.7478H17.943V19.2985C17.943 19.8822 18.4162 20.3555 19 20.3555ZM12.3918 31.6518H9.85685L10.7274 29.5311H13.9282L12.3918 31.6518ZM25.6082 31.6518L24.0718 29.5311H27.2726L28.1431 31.6518H25.6082ZM33.5605 11.1797C34.8428 11.1797 35.886 12.2229 35.886 13.5052V13.6008C35.886 14.7957 34.9139 15.7677 33.7191 15.7677C33.1353 15.7677 32.662 16.2411 32.662 16.8247C32.662 17.4084 33.1353 17.8818 33.7191 17.8818C33.7368 17.8818 33.7543 17.8806 33.7719 17.8804V22.1319C33.7719 25.0461 31.401 27.417 28.4868 27.417H9.51321C6.599 27.417 4.22809 25.0461 4.22809 22.1319V17.8804C4.24575 17.8806 4.26319 17.8818 4.28095 17.8818C4.86474 17.8818 5.33797 17.4084 5.33797 16.8247C5.33797 16.2411 4.86474 15.7677 4.28095 15.7677C3.08609 15.7677 2.11405 14.7957 2.11405 13.6008V13.5052C2.11405 12.2229 3.15722 11.1797 4.4395 11.1797C5.72177 11.1797 6.76495 12.2229 6.76495 13.5052V21.61V21.7091C6.76495 23.4577 8.18749 24.8802 9.93602 24.8802H28.064C29.8125 24.8802 31.235 23.4577 31.235 21.7091V21.61V13.5052C31.235 12.223 32.2782 11.1797 33.5605 11.1797Z" fill="#FF8B18"/>
</svg>
