<svg width="17" height="23" viewBox="0 0 17 23" fill="none" xmlns="http://www.w3.org/2000/svg">
<path d="M4.80576 8.56341L4.23599 7.88221L3.20209 8.74678L4.66661 10.4977L7.10204 8.31511L6.20273 7.31139L4.80576 8.56341Z" fill="white"/>
<path d="M8.11594 8.40039H13.3258V9.74805H8.11594V8.40039Z" fill="white"/>
<path d="M4.80576 12.4383L4.23599 11.7571L3.20209 12.6216L4.66661 14.3725L7.10204 12.19L6.20273 11.1864L4.80576 12.4383Z" fill="white"/>
<path d="M8.11594 12.2753H13.3258V13.6229H8.11594V12.2753Z" fill="white"/>
<path d="M4.80576 16.3131L4.23599 15.6319L3.20209 16.4965L4.66661 18.2474L7.10204 16.0648L6.20273 15.0613L4.80576 16.3131Z" fill="white"/>
<path d="M8.11594 16.1503H13.3258V17.4979H8.11594V16.1503Z" fill="white"/>
<path d="M13.591 0H12.2433V1.37222H10.5051V0H9.15739V1.37222H7.41878V0H6.07112V1.37222H4.33286V0H2.9852V1.37222H0V23H16.5762V1.37222H13.591V0ZM15.2285 2.71988V21.6523H1.34766V2.71988H2.9852V4.09193H4.33286V2.71988H6.07112V4.09193H7.41878V2.71988H9.15722V4.09193H10.5049V2.71988H12.2433V4.09193H13.591V2.71988H15.2285Z" fill="white"/>
</svg>
