<svg width="18" height="18" viewBox="0 0 18 18" fill="none" xmlns="http://www.w3.org/2000/svg">
<path d="M14.3833 2.22982C12.9454 0.791896 11.0336 0 9.00006 0C6.96655 0 5.05468 0.791896 3.61679 2.22982C2.17886 3.66779 1.38696 5.57959 1.38696 7.61307C1.38696 11.7268 5.27659 15.1484 7.36624 16.9865C7.65663 17.242 7.9074 17.4626 8.1072 17.6492C8.35751 17.883 8.6788 18 9.00003 18C9.32132 18 9.64254 17.883 9.89289 17.6492C10.0927 17.4626 10.3435 17.242 10.6338 16.9865C12.7235 15.1483 16.6131 11.7268 16.6131 7.61307C16.6131 5.57959 15.8212 3.66779 14.3833 2.22982ZM9.9374 16.1949C9.64065 16.4559 9.38439 16.6814 9.1731 16.8787C9.07604 16.9693 8.92402 16.9694 8.82692 16.8787C8.61566 16.6813 8.35937 16.4559 8.06262 16.1949C6.09808 14.4668 2.4413 11.25 2.4413 7.6131C2.4413 3.99664 5.3835 1.05444 8.99999 1.05444C12.6165 1.05444 15.5587 3.99664 15.5587 7.6131C15.5587 11.25 11.9019 14.4668 9.9374 16.1949Z" fill="black"/>
<path d="M9.00002 3.97049C7.15006 3.97049 5.64502 5.4755 5.64502 7.32546C5.64502 9.17542 7.15006 10.6804 9.00002 10.6804C10.85 10.6804 12.355 9.17542 12.355 7.32546C12.355 5.4755 10.85 3.97049 9.00002 3.97049ZM9.00002 9.62598C7.73148 9.62598 6.69943 8.59393 6.69943 7.32542C6.69943 6.05691 7.73148 5.02486 9.00002 5.02486C10.2686 5.02486 11.3006 6.05691 11.3006 7.32542C11.3006 8.59393 10.2686 9.62598 9.00002 9.62598Z" fill="black"/>
</svg>
