<svg width="22" height="22" viewBox="0 0 22 22" fill="none" xmlns="http://www.w3.org/2000/svg">
<g clip-path="url(#clip0_133_1019)">
<path d="M10.4734 0.272084L8.81384 2.62604C8.51319 3.05255 8.81934 3.64204 9.34064 3.64204L10.3556 3.64204L10.3556 14.9445C10.3556 15.3005 10.6442 15.5891 11.0002 15.5891C11.3562 15.5891 11.6448 15.3005 11.6448 14.9445L11.6448 3.64212L12.6597 3.64212C13.1844 3.64212 13.4849 3.0495 13.1865 2.62617L11.527 0.272213C11.2737 -0.0872632 10.7324 -0.0945254 10.4734 0.272084Z" fill="white"/>
<path d="M10.4734 0.272084L8.81384 2.62604C8.51319 3.05255 8.81934 3.64204 9.34064 3.64204L10.3556 3.64204L10.3556 14.9445C10.3556 15.3005 10.6442 15.5891 11.0002 15.5891C11.3562 15.5891 11.6448 15.3005 11.6448 14.9445L11.6448 3.64212L12.6597 3.64212C13.1844 3.64212 13.4849 3.0495 13.1865 2.62617L11.527 0.272213C11.2737 -0.0872632 10.7324 -0.0945254 10.4734 0.272084Z" fill="url(#paint0_linear_133_1019)"/>
<path d="M15.1386 3.5032C14.9605 3.81124 15.0657 4.20561 15.3739 4.38389C17.9913 5.89793 19.7486 8.72816 19.7486 11.9624C19.7486 16.7863 15.824 20.7109 11 20.7109C6.1761 20.7109 2.25151 16.7863 2.25151 11.9624C2.25151 8.72601 4.01035 5.89707 6.62611 4.38393C6.93428 4.2057 7.03943 3.81124 6.86132 3.50324C6.68309 3.19511 6.28876 3.08984 5.98064 3.26803C2.97033 5.00938 0.962402 8.26164 0.962402 11.9624C0.962402 17.5102 5.45173 22 11 22C16.5479 22 21.0377 17.5107 21.0377 11.9624C21.0377 8.26005 19.0283 5.00861 16.0193 3.26799C15.7112 3.0898 15.3169 3.19507 15.1386 3.5032Z" fill="white"/>
<path d="M15.1386 3.5032C14.9605 3.81124 15.0657 4.20561 15.3739 4.38389C17.9913 5.89793 19.7486 8.72816 19.7486 11.9624C19.7486 16.7863 15.824 20.7109 11 20.7109C6.1761 20.7109 2.25151 16.7863 2.25151 11.9624C2.25151 8.72601 4.01035 5.89707 6.62611 4.38393C6.93428 4.2057 7.03943 3.81124 6.86132 3.50324C6.68309 3.19511 6.28876 3.08984 5.98064 3.26803C2.97033 5.00938 0.962402 8.26164 0.962402 11.9624C0.962402 17.5102 5.45173 22 11 22C16.5479 22 21.0377 17.5107 21.0377 11.9624C21.0377 8.26005 19.0283 5.00861 16.0193 3.26799C15.7112 3.0898 15.3169 3.19507 15.1386 3.5032Z" fill="url(#paint1_linear_133_1019)"/>
</g>
<defs>
<linearGradient id="paint0_linear_133_1019" x1="8.69531" y1="7.79449" x2="13.3046" y2="7.79448" gradientUnits="userSpaceOnUse">
<stop stop-color="white"/>
<stop offset="1" stop-color="white" stop-opacity="0"/>
</linearGradient>
<linearGradient id="paint1_linear_133_1019" x1="0.962402" y1="12.5906" x2="21.0377" y2="12.5906" gradientUnits="userSpaceOnUse">
<stop stop-color="white"/>
<stop offset="1" stop-color="white" stop-opacity="0"/>
</linearGradient>
<clipPath id="clip0_133_1019">
<rect width="22" height="22" fill="white" transform="translate(0 22) rotate(-90)"/>
</clipPath>
</defs>
</svg>
