<svg width="29" height="29" viewBox="0 0 29 29" fill="none" xmlns="http://www.w3.org/2000/svg">
<path d="M23.0331 0H5.9665C4.24562 0 2.84497 1.40065 2.84497 3.12188V25.8781C2.84497 27.5997 4.24562 29 5.96685 29H23.0334C24.755 29 26.1553 27.5997 26.1553 25.8781V3.12188C26.155 1.4003 24.755 0 23.0331 0ZM24.0732 25.8781C24.0732 26.4516 23.6066 26.9183 23.0331 26.9183H5.9665C5.39299 26.9183 4.92634 26.4516 4.92634 25.8781V3.12188C4.92668 2.54836 5.39334 2.08171 5.96685 2.08171H23.0334C23.6069 2.08171 24.0736 2.54836 24.0736 3.12188V25.8781H24.0732Z" fill="#FF8B18"/>
<path d="M21.264 7.40084H7.7356V9.48221H21.264V7.40084Z" fill="#FF8B18"/>
<path d="M21.264 13.0204H7.7356V15.1018H21.264V13.0204Z" fill="#FF8B18"/>
<path d="M21.264 18.64H7.7356V20.721H21.264V18.64Z" fill="#FF8B18"/>
</svg>
