<svg width="27" height="27" viewBox="0 0 27 27" fill="none" xmlns="http://www.w3.org/2000/svg">
<g clip-path="url(#clip0_133_114)">
<path d="M1.50145 5.7355L4.01074 6.8822L15.657 1.36727C15.7415 1.32656 15.7946 1.24035 15.7931 1.14663C15.7917 1.05278 15.7358 0.968418 15.65 0.930397L13.5975 0.0206266C13.5354 -0.00687553 13.4646 -0.00687553 13.4024 0.0206266L1.50392 5.29663C1.41736 5.33507 1.36139 5.4206 1.36084 5.51528C1.36029 5.60995 1.4153 5.69617 1.50145 5.7355Z" fill="#C4C4C4"/>
<path d="M12.7669 12.1876L8.29866 10.1243V16.4234C8.29866 16.4823 8.2684 16.5372 8.21842 16.5688C8.19051 16.5865 8.15867 16.5953 8.12677 16.5953C8.10147 16.5953 8.07617 16.5897 8.05258 16.5785L3.31713 14.3354C3.25738 14.3068 3.21943 14.2465 3.21943 14.1803V7.83906L0.467636 6.56613C0.393174 6.53203 0.306473 6.53822 0.237512 6.58249C0.168619 6.62684 0.126953 6.70309 0.126953 6.78491V21.1372C0.126953 21.2314 0.181889 21.317 0.267558 21.3561L12.5669 26.9781C12.5988 26.9926 12.6329 26.9998 12.667 26.9998C12.7124 26.9998 12.7576 26.9869 12.797 26.9616C12.8659 26.9173 12.9076 26.841 12.9076 26.7591V12.4065C12.9076 12.3124 12.8527 12.2268 12.7669 12.1876Z" fill="#C4C4C4"/>
<path d="M26.7622 6.58263C26.6933 6.53835 26.6065 6.5323 26.5321 6.56627L14.2334 12.1877C14.1477 12.2269 14.0928 12.3124 14.0928 12.4067V26.7594C14.0928 26.8413 14.1344 26.9177 14.2033 26.9619C14.2427 26.9872 14.2879 27.0001 14.3334 27.0001C14.3675 27.0001 14.4016 26.9929 14.4335 26.9784L26.7322 21.3564C26.8178 21.3174 26.8728 21.2318 26.8728 21.1375V6.78512C26.8728 6.70323 26.8311 6.62691 26.7622 6.58263Z" fill="#C4C4C4"/>
<path d="M25.64 5.51527C25.6394 5.42059 25.5834 5.33506 25.4969 5.29663L21.359 3.46217C21.2945 3.43343 21.2206 3.43474 21.157 3.46526L9.21045 9.1714L13.3999 11.1733C13.4317 11.1879 13.4658 11.1951 13.5 11.1951C13.5341 11.1951 13.5682 11.1879 13.6 11.1733L25.4992 5.73536C25.5855 5.69617 25.6406 5.60995 25.64 5.51527Z" fill="#C4C4C4"/>
</g>
<defs>
<clipPath id="clip0_133_114">
<rect width="27" height="27" fill="white"/>
</clipPath>
</defs>
</svg>
