<svg width="28" height="28" viewBox="0 0 28 28" fill="none" xmlns="http://www.w3.org/2000/svg">
<g clip-path="url(#clip0_133_44)">
<path d="M17.8979 15.0625H19.5386V16.7031H17.8979V15.0625Z" fill="#FF8B18"/>
<path d="M14.1211 15.0625H15.7617V16.7031H14.1211V15.0625Z" fill="#FF8B18"/>
<path d="M10.3442 15.0625H11.9849V16.7031H10.3442V15.0625Z" fill="#FF8B18"/>
<path d="M28 6.46877C28 2.90188 25.0982 0 21.5312 0C18.9288 0 16.6808 1.54492 15.6552 3.76562H5.70489L5.32831 0H0V1.64062H3.84355L4.07903 3.99514L5.57747 18.9798C4.52364 19.349 3.76562 20.353 3.76562 21.5312C3.76562 23.0217 4.97826 24.2343 6.46877 24.2343H7.73795C7.5979 24.5606 7.52008 24.9198 7.52008 25.2969C7.52008 26.7874 8.73266 28 10.2232 28C11.7137 28 12.9263 26.7874 12.9263 25.2969C12.9263 24.9198 12.8485 24.5607 12.7084 24.2343H17.1745C17.0344 24.5606 16.9566 24.9198 16.9566 25.2969C16.9566 26.7874 18.1693 28 19.6598 28C21.1503 28 22.3629 26.7874 22.3629 25.2969C22.3629 24.9198 22.2851 24.5607 22.145 24.2343H24.1563V22.5937H6.46877C5.8829 22.5937 5.40624 22.1171 5.40624 21.5312C5.40624 20.9454 5.8829 20.4687 6.46877 20.4687H24.1565L25.0114 11.9194C26.8073 10.7688 28 8.75547 28 6.46877ZM10.2231 26.3594C9.63725 26.3594 9.16065 25.8827 9.16065 25.2969C9.16065 24.711 9.63725 24.2344 10.2231 24.2344C10.809 24.2344 11.2856 24.711 11.2856 25.2969C11.2856 25.8827 10.809 26.3594 10.2231 26.3594ZM19.6597 26.3594C19.0738 26.3594 18.5971 25.8827 18.5971 25.2969C18.5971 24.711 19.0738 24.2344 19.6597 24.2344C20.2455 24.2344 20.7222 24.711 20.7222 25.2969C20.7222 25.8827 20.2455 26.3594 19.6597 26.3594ZM21.5312 1.64062C24.1935 1.64062 26.3594 3.80652 26.3594 6.46877C26.3594 9.13101 24.1935 11.2969 21.5312 11.2969C18.869 11.2969 16.7031 9.13101 16.7031 6.46877C16.7031 3.80652 18.869 1.64062 21.5312 1.64062ZM22.6716 18.8281H7.21109L5.86895 5.40624H15.1502C15.0929 5.75209 15.0625 6.1069 15.0625 6.46877C15.0625 10.0356 17.9644 12.9375 21.5312 12.9375C22.1388 12.9375 22.727 12.8532 23.2849 12.6959L22.6716 18.8281Z" fill="#FF8B18"/>
<path d="M24.6709 5.49708L23.5108 4.33699L20.9875 6.86038L19.5517 5.42467L18.3916 6.58476L20.9875 9.18061L24.6709 5.49708Z" fill="#FF8B18"/>
</g>
<defs>
<clipPath id="clip0_133_44">
<rect width="28" height="28" fill="white"/>
</clipPath>
</defs>
</svg>
