<svg width="34" height="34" viewBox="0 0 34 34" fill="none" xmlns="http://www.w3.org/2000/svg">
<path d="M26.5757 6.40146H19.9016L22.8412 1.99219H26.5757C27.1259 1.99219 27.5718 1.54628 27.5718 0.996094C27.5718 0.445908 27.1259 0 26.5757 0H22.3081C21.975 0 21.664 0.166534 21.4793 0.443573L17.5074 6.40146H7.37109C6.82091 6.40146 6.375 6.84763 6.375 7.39755V11.6655C6.375 12.2154 6.82091 12.6615 7.37109 12.6615H7.53659L9.58066 33.103C9.6315 33.6122 10.06 34 10.5718 34H23.375C23.8868 34 24.3153 33.6122 24.3662 33.103L26.4102 12.6615H26.5757C27.1259 12.6615 27.5718 12.2154 27.5718 11.6655V7.39755C27.5718 6.84763 27.1259 6.40146 26.5757 6.40146ZM8.36719 8.39365H25.5796V10.6694H8.36719V8.39365ZM22.4736 32.0078H11.4732L9.53864 12.6615H24.4082L22.4736 32.0078Z" fill="#FF8B18"/>
<path d="M16.9736 25.4647C19.2877 25.4647 21.1704 23.5817 21.1704 21.2676C21.1704 18.9535 19.2877 17.0708 16.9736 17.0708C14.6595 17.0708 12.7765 18.9535 12.7765 21.2676C12.7765 23.5817 14.6592 25.4647 16.9736 25.4647ZM16.9736 19.063C18.1891 19.063 19.1782 20.0521 19.1782 21.2676C19.1782 22.4832 18.1891 23.4723 16.9736 23.4723C15.7578 23.4723 14.7687 22.4832 14.7687 21.2676C14.7687 20.0521 15.7578 19.063 16.9736 19.063Z" fill="#FF8B18"/>
</svg>
